<svg width="500" height="500" viewBox="0 0 500 500" fill="none" xmlns="http://www.w3.org/2000/svg">
<path fill-rule="evenodd" clip-rule="evenodd" d="M0 250C0 111.929 111.929 0 250 0V0C388.071 0 500 111.929 500 250V250C500 388.071 388.071 500 250 500V500C111.929 500 0 388.071 0 250V250Z" fill="#016FD0"/>
<path fill-rule="evenodd" clip-rule="evenodd" d="M181.12 420.888V241.721L500 242.014V291.504L463.14 330.881L500 370.638V421.17H441.157L409.885 386.665L378.83 421.311L181.12 420.888Z" fill="white"/>
<path fill-rule="evenodd" clip-rule="evenodd" d="M202.42 401.237V261.437H320.964V293.641H240.81V315.506H319.054V347.179H240.81V368.652H320.964V401.237H202.42Z" fill="#016FD0"/>
<path fill-rule="evenodd" clip-rule="evenodd" d="M320.378 401.237L385.959 331.261L320.378 261.448H371.137L411.22 305.751L451.411 261.448H500V262.544L435.807 331.261L500 399.262V401.237H450.922L410.135 356.489L369.759 401.237H320.378Z" fill="#016FD0"/>
<path fill-rule="evenodd" clip-rule="evenodd" d="M195.996 82.7041H272.862L299.859 144.011V82.7041H394.759L411.122 128.635L427.539 82.7041H500V261.86H117.057L195.996 82.7041Z" fill="white"/>
<path fill-rule="evenodd" clip-rule="evenodd" d="M210.558 102.17L148.524 241.851H191.07L202.767 213.878H266.178L277.875 241.851H321.473L259.7 102.17H210.558ZM215.885 182.531L234.483 138.065L253.071 182.531H215.885Z" fill="#016FD0"/>
<path fill-rule="evenodd" clip-rule="evenodd" d="M320.898 241.829V102.148L380.697 102.355L411.469 188.227L442.448 102.148H500V241.829L462.967 242.155V146.202L428.006 241.829H394.195L358.507 145.877V241.829H320.898Z" fill="#016FD0"/>
</svg>
