<svg width="240" height="346" viewBox="0 0 240 346" fill="none" xmlns="http://www.w3.org/2000/svg">
<path d="M121.925 345C121.625 344.5 120.625 344 119.725 344C117.125 344 100.625 337.1 86.925 330.3C67.925 320.8 49.825 308.5 37.525 296.6C16.225 276 7.525 260.3 2.325 233.8C-0.775 218 -0.775 191.2 2.325 172.5C5.625 152.7 10.825 134.5 18.625 116C23.525 104.5 31.525 88.7 32.125 89.4C32.425 89.7 32.025 92.3 31.325 95.2C29.225 104 29.625 119.4 32.125 127.5C36.025 139.8 44.625 149.4 54.825 152.6C61.625 154.8 77.925 155.5 85.725 154C111.325 149 127.125 126.7 129.125 93C130.825 61.7 119.325 24.6 101.625 4.8C99.125 2.1 97.825 0 98.625 0C99.425 0 104.025 2.3 108.925 5.1C152.825 30.3 181.325 64.1 189.825 101.2C192.325 112.3 193.625 127.1 192.925 136.5C190.425 170.3 176.325 205 152.325 236.8C133.525 261.8 126.925 273.7 122.825 289.8C118.925 305.1 119.725 328 124.525 340.7C125.025 342 125.425 343.8 125.425 344.6C125.425 346.2 122.825 346.5 121.925 345Z" fill="#D3AF36"/>
<path d="M140.025 335.3C137.625 327.5 136.825 311.6 138.425 303.8C141.725 286.8 151.225 269.1 168.525 247.5C182.225 230.5 190.625 214.7 198.125 192C205.125 170.7 207.725 158.3 207.825 145.3C207.925 139.1 208.125 134 208.425 134C209.325 134 219.525 151.9 224.425 162.2C235.125 184.8 240.725 212.1 238.625 232C236.525 252 229.325 268.7 216.125 284.1C208.325 293.1 200.425 299.7 182.425 312.1C166.225 323.2 147.325 337.2 145.525 339.4C143.125 342.2 141.725 341.1 140.025 335.3Z" fill="#D3AF36"/>
</svg>
