<?xml version="1.0" encoding="utf-8"?>
<!-- Generator: Adobe Illustrator 26.5.0, SVG Export Plug-In . SVG Version: 6.00 Build 0)  -->
<svg version="1.1" id="Layer_1" xmlns="http://www.w3.org/2000/svg" xmlns:xlink="http://www.w3.org/1999/xlink" x="0px" y="0px"
	 viewBox="0 0 500 500" style="enable-background:new 0 0 500 500;" xml:space="preserve">
<style type="text/css">
	.st0{fill:url(#SVGID_1_);}
	.st1{fill:url(#SVGID_00000055708624171631794410000004374301101906527925_);}
</style>
<g>
	<linearGradient id="SVGID_1_" gradientUnits="userSpaceOnUse" x1="224.579" y1="57.0207" x2="224.579" y2="442.9792">
		<stop  offset="1.322751e-03" style="stop-color:#EC9128"/>
		<stop  offset="0.8117" style="stop-color:#EE4544"/>
		<stop  offset="1" style="stop-color:#EC4780"/>
	</linearGradient>
	<path class="st0" d="M155.2,154.5c-3.2,9.9-4.6,19.4-4.2,29.2c0.2,7.5,1.3,14.8,4.1,21.7c4.4,10.8,11.8,18.5,23,22.1
		c15.3,5,30.7,4.6,45.5-1.6c17.1-7,27.2-20.7,32.4-38c7.6-25,5.6-49.9-1.2-74.6c-4.9-17.8-12.4-34.4-24.4-48.7c-2.3-2.7-5-5-7.2-7.7
		c6.1,1.7,11.3,4.9,16.6,7.9c16.7,9.6,32.4,20.7,46.1,34.4c23.7,23.5,39.8,51.2,44.7,84.7c3.2,21.8,0.6,43.2-5.7,64.1
		c-8.8,28.9-22.7,55.1-41.7,78.7c-9.3,11.6-17.7,23.8-23.7,37.5c-4.7,10.7-7.4,21.8-8.3,33.6c-1.1,14.2,1.4,27.8,5.2,41.3
		c0.3,1.1,1.3,2.4,0.3,3.4c-1,1-2.3,0.1-3.4-0.2c-31.4-10.8-60.8-25.3-86.6-46.6c-12.6-10.4-23.4-22.5-32-36.5
		c-9.3-15.1-14-31.6-16.1-49c-5.4-45.4,4.4-88.1,22.4-129.5c3.4-7.8,7.2-15.4,11.4-22.7C153,157,153.5,155.7,155.2,154.5z"/>
	
		<linearGradient id="SVGID_00000064316844848004742660000017137169285862642075_" gradientUnits="userSpaceOnUse" x1="326.122" y1="205.7765" x2="326.122" y2="438.4328">
		<stop  offset="1.322751e-03" style="stop-color:#EC9128"/>
		<stop  offset="0.8117" style="stop-color:#EE4544"/>
		<stop  offset="1" style="stop-color:#EC4780"/>
	</linearGradient>
	<path style="fill:url(#SVGID_00000064316844848004742660000017137169285862642075_);" d="M347.1,205.8c4.7,5.3,8.1,11.5,11.5,17.7
		c11.1,20.1,19.4,41.3,22.8,64.2c5.5,37.5-4.9,69.5-32.3,95.7c-9.8,9.4-21.4,16.5-32.3,24.3c-13.5,9.7-27.5,18.7-39.7,29.9
		c-1.9,1.7-2.2,0.6-2.8-1c-5.7-16.5-6.6-33.1-1.1-49.9c6.4-19.7,17.2-36.9,30.3-52.5c18.8-22.4,30.1-48.4,38-76.1
		c4-13.9,7-28.1,6.7-42.7C348,212.2,347.4,209.1,347.1,205.8z"/>
</g>
</svg>

