<svg width="500" height="500" viewBox="0 0 500 500" fill="none" xmlns="http://www.w3.org/2000/svg">
<path d="M254.688 125.917C227.438 102.183 193.594 85.9204 155.795 80.2065C146.125 85.4809 136.895 91.6342 128.544 98.2271C128.105 98.6666 127.665 98.6666 127.226 98.6666C95.1405 89.4366 59.5389 102.622 41.9579 132.95C24.3768 163.277 30.9697 200.637 54.7041 223.931C55.1436 224.371 55.1436 224.81 55.1436 225.25C53.8251 234.041 53.3855 243.271 53.3855 252.501C53.3855 305.683 74.9223 354.031 109.645 389.633C110.963 390.951 113.161 389.633 112.282 387.874C104.81 366.777 100.415 344.361 100.415 320.627C100.415 293.816 106.129 268.324 115.798 245.029C115.798 244.589 116.238 244.15 117.117 244.15C139.093 241.073 159.751 228.766 171.618 207.669C179.529 193.604 182.606 178.221 180.848 163.277C180.848 162.837 180.848 162.398 181.288 161.958C202.385 146.575 226.998 135.147 253.37 129.433C255.128 128.554 255.567 126.796 254.688 125.917Z" fill="#FF6300"/>
<path d="M138.214 311.397C131.182 346.999 134.258 384.358 147.884 419.52C157.114 425.234 167.223 430.069 177.332 434.025C177.771 434.025 178.211 434.464 178.211 434.904C186.562 467.429 215.57 491.163 250.293 491.163C285.455 491.163 314.464 466.989 322.815 434.464C322.815 434.025 323.254 433.585 323.694 433.585C332.045 430.069 340.396 426.113 348.307 421.718C394.457 394.907 425.664 352.273 439.289 304.804C439.729 303.046 437.531 301.728 436.212 303.486C421.708 320.627 404.127 335.571 383.909 347.438C360.614 360.624 335.561 368.975 310.508 372.052C310.068 372.052 309.629 372.052 309.189 371.612C295.564 354.031 274.467 342.603 250.293 342.603C234.031 342.603 219.087 347.878 206.78 356.668C206.34 357.108 205.901 357.108 205.461 356.668C181.727 346.12 159.751 330.736 141.291 310.958C140.412 309.199 138.653 310.079 138.214 311.397Z" fill="#FF6300"/>
<path d="M357.537 319.308C391.82 307.441 423.027 286.344 446.761 256.896C447.201 245.908 446.322 234.92 444.563 224.371C444.563 223.931 444.563 223.492 445.003 223.052C469.177 199.758 475.33 162.398 457.749 132.51C440.168 102.183 404.567 88.9971 372.481 98.2271C372.042 98.2271 371.602 98.2271 371.163 97.7876C364.13 92.0738 356.658 87.239 348.307 82.4042C301.718 55.5931 249.414 49.8793 201.066 62.186C199.308 62.6255 199.308 65.2627 201.066 65.7022C223.042 69.6579 244.579 77.1299 265.237 88.9971C288.532 102.183 307.871 119.764 323.254 139.982C323.694 140.422 323.694 140.861 323.254 141.301C314.903 161.958 315.343 185.693 327.65 206.79C335.561 220.855 347.868 230.964 361.493 237.117C361.933 237.117 362.372 237.557 362.372 238.436C365.009 264.368 362.812 291.179 354.461 317.111C354.461 318.429 355.779 319.748 357.537 319.308Z" fill="#FF6300"/>
</svg>
