<svg width="500" height="500" viewBox="0 0 500 500" fill="none" xmlns="http://www.w3.org/2000/svg">
<path d="M264.5 88H67V285.5C67 394.52 155.48 483 264.5 483C373.52 483 462 394.52 462 285.5C462 176.48 373.52 88 264.5 88Z" fill="#F0483E"/>
<path d="M367.2 182.8C341.13 156.73 304.79 140.14 264.5 140.14H119.93V269.7H264.5C268.45 269.7 273.19 271.28 275.56 274.44C278.72 277.6 280.3 281.55 280.3 285.5C280.3 289.45 278.72 294.19 275.56 296.56C273.19 299.72 268.45 301.3 264.5 301.3H139.68L119.14 349.49H264.5C281.88 349.49 298.47 342.38 310.32 330.53C322.17 318.68 329.28 302.88 329.28 284.71C329.28 267.33 322.17 250.74 310.32 238.89C298.47 227.04 282.67 219.93 264.5 219.93H168.12V187.54H264.5C317.43 187.54 360.88 230.99 360.88 283.92C360.88 336.85 317.43 380.3 264.5 380.3H156.27C183.13 410.32 221.05 428.49 264.5 428.49C304.79 428.49 340.34 412.69 367.2 385.83C393.27 359.76 409.86 323.42 409.86 283.13C409.07 245.21 393.27 209.66 367.2 182.8Z" fill="white"/>
</svg>
