<svg width="342" height="500" viewBox="0 0 342 500" fill="none" xmlns="http://www.w3.org/2000/svg">
<path d="M80.0533 345.666C79.6021 345.666 78.6996 345.666 78.2482 345.666C72.3818 346.569 68.7717 351.984 69.6742 357.851C76.8945 399.367 112.996 419.223 117.057 421.028C127.888 426.894 139.62 430.956 151.805 432.76C155.865 433.212 159.927 433.663 163.989 433.663C197.833 433.663 229.422 414.258 244.314 384.926C266.877 340.251 251.533 289.258 207.31 261.281L185.197 246.84L145.938 222.02C111.19 199.908 98.5555 160.198 115.703 125.45C126.985 102.887 151.353 87.995 177.075 87.995C180.234 87.995 183.393 88.4462 186.552 88.4462C196.48 89.8002 205.505 92.9591 214.53 97.9225L214.981 98.3743C215.432 98.3743 245.667 113.717 251.533 146.659C252.436 151.623 256.948 155.233 261.913 155.233C262.364 155.233 263.266 155.233 263.718 155.233C269.584 154.331 273.194 148.915 272.292 143.049C265.072 101.533 228.971 81.6773 224.909 79.8722C214.079 74.0058 202.346 69.9444 190.162 68.1393C186.1 67.6881 182.039 67.2368 177.978 67.2368C144.133 67.2368 112.545 86.6411 97.6528 115.973C74.6381 160.198 89.9814 211.19 134.656 239.168L173.916 263.988L196.48 278.428C231.227 300.54 243.411 340.251 226.263 374.998C214.981 397.562 190.613 412.454 164.891 412.454C161.732 412.454 158.573 412.002 155.414 412.002C145.487 410.649 136.462 407.49 127.436 402.526L126.985 402.074C126.533 402.074 96.2992 386.732 90.4323 353.79C89.5296 349.277 85.4685 345.666 80.0533 345.666Z" fill="#09CCA9"/>
<path d="M131.061 358.301C127.902 358.301 125.195 359.655 122.938 361.912C119.328 366.424 119.78 372.742 124.292 376.803C131.061 382.67 139.635 386.731 140.538 386.731C147.757 389.889 155.43 391.695 162.649 391.695C181.151 391.695 197.848 381.316 205.971 364.619C217.704 340.251 210.032 313.626 187.018 298.735L145.501 272.11L128.354 260.829C116.621 254.059 103.082 240.972 102.631 240.972C63.8226 203.969 53.4435 149.366 76.4579 105.142C94.9599 69.4925 132.414 46.4781 171.223 46.0268H171.674C188.822 46.0268 213.191 48.7344 234.852 60.4672L235.303 60.9185C235.754 61.3698 289.906 88.4456 299.382 155.684C300.285 160.647 304.347 164.709 309.762 164.709C310.213 164.709 310.664 164.709 311.115 164.709C313.822 164.258 316.531 162.905 317.884 160.647C319.689 158.391 320.14 155.684 319.689 152.976C315.177 120.937 302.09 92.9581 279.978 69.9438C263.281 52.3445 247.487 43.7705 244.328 41.9654C219.057 27.9762 191.079 24.8174 172.126 24.8174C171.674 24.8174 171.223 24.8174 170.772 24.8174C124.292 24.8174 80.068 52.3445 57.9561 94.7635C45.772 118.229 40.8081 144.403 44.4182 171.027C47.577 197.2 58.8586 222.471 76.9092 243.68V244.131C76.9092 244.583 77.3605 244.583 77.3605 245.034C88.1908 257.218 101.278 268.5 116.169 278.428L133.317 289.709L169.418 312.723L174.833 316.334C189.274 325.811 193.787 340.702 186.566 355.594C182.054 365.071 172.577 370.937 161.747 370.937C157.234 370.937 152.722 370.034 148.209 368.23C148.209 368.23 141.44 365.071 136.927 361.009C135.573 359.204 133.317 358.301 131.061 358.301Z" fill="#09CCA9"/>
<path d="M100.821 0C99.4671 0 97.6617 0.451264 96.3081 0.902527C38.9975 27.9784 15.983 73.1048 6.95772 106.047C-2.97009 141.696 0.640019 170.578 0.640019 171.931C4.25013 207.581 20.9469 237.365 28.1671 248.647C29.5209 251.354 30.8747 252.708 30.8747 252.708C39.9 265.795 47.1203 273.466 47.5715 273.917C84.5751 311.823 150.008 347.473 152.716 349.279C154.07 350.18 155.875 350.632 157.68 350.632C161.741 350.632 164.9 348.376 166.705 345.217C168.059 342.961 168.51 339.802 167.607 337.094C166.705 334.387 164.9 332.13 162.644 330.777C162.192 330.325 97.6617 295.127 62.4632 259.026C62.4632 259.026 51.1816 247.293 40.3512 227.888C33.131 214.35 23.6544 192.689 20.9469 168.772C20.9469 167.871 9.21399 64.5307 104.882 19.4044C107.589 18.0505 109.395 16.2455 110.297 13.538C111.2 10.8304 111.2 8.12275 109.846 5.41517C108.492 2.25632 104.882 0 100.821 0Z" fill="#09CCA9"/>
<path d="M31.7754 335.739C31.3241 335.739 30.8728 335.739 30.4216 335.739C24.5551 336.642 20.4938 342.057 21.3963 347.472C25.909 379.512 38.9956 407.49 61.1076 430.505C77.8043 448.104 93.5983 456.678 96.7572 458.483C122.028 472.472 150.458 475.631 169.862 475.631H170.313H170.764C217.245 475.631 261.469 448.104 283.58 405.686C295.764 382.22 300.729 356.046 297.119 329.422C293.96 303.249 282.678 277.978 264.628 256.769V256.317C264.628 255.866 264.176 255.866 264.176 255.414C253.346 243.23 240.259 231.949 225.368 222.021L208.22 210.739L172.119 187.725L166.704 184.115C152.263 174.638 147.75 159.746 154.971 144.855C159.483 135.378 168.96 129.512 179.79 129.512C184.303 129.512 188.815 130.414 193.328 132.219C195.133 133.122 200.548 135.829 204.609 139.44C206.414 140.794 208.671 141.696 211.379 141.696C214.538 141.696 217.245 140.343 219.501 138.086C223.111 133.573 222.66 127.255 218.147 123.194C211.379 117.327 202.805 113.267 201.902 113.267C194.681 110.108 187.01 108.302 179.79 108.302C161.288 108.302 144.591 118.682 136.469 135.378C124.736 159.746 132.407 186.371 155.422 201.263L196.938 227.887L214.086 239.169C223.563 245.036 231.685 251.804 239.356 259.025C278.165 296.028 288.545 350.631 265.079 394.855C246.577 430.505 209.122 453.52 170.313 453.97H169.862C152.714 453.97 128.346 451.263 106.685 439.53L106.234 439.079C103.978 438.177 51.631 411.101 42.1544 344.313C41.2519 339.801 37.1905 335.739 31.7754 335.739Z" fill="#09CCA9"/>
<path d="M183.858 149.82C179.797 149.82 176.638 152.076 174.833 155.235C172.125 160.198 173.931 166.516 178.895 169.223C178.895 169.223 195.14 178.249 215.898 191.787C234.851 203.97 260.573 222.473 279.075 240.975C279.075 240.975 290.808 252.707 301.187 272.112C302.992 275.271 318.335 303.249 320.591 331.228C321.042 335.74 322.848 360.56 314.273 390.343C308.858 408.394 300.736 424.639 289.906 438.628C276.367 456.228 258.317 470.217 236.656 480.145C231.241 482.401 228.985 488.719 231.692 494.134C233.498 497.744 237.107 500 241.169 500C242.523 500 244.328 499.549 245.681 499.097C302.992 472.021 326.006 426.896 335.031 393.953C344.959 358.304 341.349 329.422 341.349 328.069C337.288 292.419 320.591 262.635 313.823 251.354C312.017 248.646 310.664 246.841 310.664 246.841C301.639 233.754 294.418 226.083 293.967 226.083C256.963 188.177 191.53 152.527 188.823 151.173C187.468 150.27 185.664 149.82 183.858 149.82Z" fill="#09CCA9"/>
</svg>
